<svg width="96" height="122" viewBox="0 0 96 122" fill="none" xmlns="http://www.w3.org/2000/svg">
<path fill-rule="evenodd" clip-rule="evenodd" d="M84.212 14.2976C87.7789 11.488 91.2395 10.0846 94.5977 10.5416C94.8214 10.5814 95.0459 10.6204 95.2712 10.6586C95.0472 10.6112 94.8227 10.5722 94.5977 10.5416C90.4935 9.81114 86.6786 8.81476 83.1152 7.72445C79.586 6.64461 76.3035 5.47266 73.231 4.37566C66.6167 2.01415 60.9754 0 55.9404 0C46.0761 0 36.0299 13.8526 36.0299 23.7169C22.475 31.5023 0.450894 96.4292 0.00682118 116.148C-0.00163005 116.523 -0.00226528 116.882 0.00512263 117.224C0.00661039 117.293 0.00842353 117.361 0.0105637 117.428C0.0110335 117.483 0.0130047 117.538 0.0164558 117.592C0.12465 120.274 0.770148 121.805 2.06488 121.805C20.9176 113.329 37.9705 84.311 53.4183 58.0247L53.4183 58.0247C64.4824 39.1977 74.7231 21.7718 84.212 14.2976ZM24.2321 92.9746C19.5392 99.3463 14.9166 104.741 10.3718 108.892L25.995 75.9714C27.0547 73.7383 28.4532 71.6823 30.1407 69.8761L33.9207 65.8305C39.1123 60.2742 42 52.9536 42.0001 45.3492L42.0001 27.207L42.0299 27.1899V23.7169C42.0299 20.5434 43.7919 15.8949 46.9773 11.9C50.2531 7.7916 53.6902 6 55.9404 6C59.6189 6 64.0673 7.47563 70.8098 9.88216L71.3254 10.0663L71.3257 10.0664C73.2506 10.7538 75.3035 11.4869 77.4828 12.2171C75.186 14.4117 72.9597 16.9614 70.8025 19.7056C63.5738 28.9014 56.0527 41.6996 48.4253 54.6785L48.3263 54.8471C40.5537 68.0731 32.577 81.6447 24.2321 92.9746ZM36.0001 45.3492L36.0001 31.9412C35.5437 32.5208 35.048 33.1929 34.5158 33.968C32.469 36.9485 30.253 40.8915 27.9727 45.5569C23.4195 54.8726 18.8462 66.5796 15.0422 78.0915C12.9097 84.5449 11.0439 90.8617 9.56839 96.5904L20.5744 73.399C21.8991 70.6075 23.6471 68.0375 25.7566 65.7798L29.5365 61.7343C33.6898 57.2892 36.0001 51.4327 36.0001 45.3492ZM59 18C60.6569 18 62 16.6569 62 15C62 13.3431 60.6569 12 59 12C57.3431 12 56 13.3431 56 15C56 16.6569 57.3431 18 59 18Z" fill="white"/>
</svg>
