<svg width="128" height="79" viewBox="0 0 128 79" fill="none" xmlns="http://www.w3.org/2000/svg">
<rect x="3" y="3" width="122" height="73" rx="13" stroke="white" stroke-width="6"/>
<rect width="13" height="8" rx="4" transform="matrix(-1 0 0 1 37 16)" fill="white"/>
<rect width="13" height="8" rx="4" transform="matrix(-1 0 0 1 37 16)" stroke="white"/>
<rect width="13" height="8" rx="4" transform="matrix(-1 0 0 1 37 30)" fill="white"/>
<rect width="13" height="8" rx="4" transform="matrix(-1 0 0 1 37 30)" stroke="white"/>
<rect width="13" height="8" rx="4" transform="matrix(-1 0 0 1 37 44)" fill="white"/>
<rect width="13" height="8" rx="4" transform="matrix(-1 0 0 1 37 44)" stroke="white"/>
<rect width="13" height="8" rx="4" transform="matrix(-1 0 0 1 59 16)" fill="white"/>
<rect width="13" height="8" rx="4" transform="matrix(-1 0 0 1 59 16)" stroke="white"/>
<rect width="13" height="8" rx="4" transform="matrix(-1 0 0 1 59 30)" fill="white"/>
<rect width="13" height="8" rx="4" transform="matrix(-1 0 0 1 59 30)" stroke="white"/>
<rect width="13" height="8" rx="4" transform="matrix(-1 0 0 1 59 44)" fill="white"/>
<rect width="13" height="8" rx="4" transform="matrix(-1 0 0 1 59 44)" stroke="white"/>
<rect width="47" height="8" rx="4" transform="matrix(-1 0 0 1 87 57)" fill="white"/>
<rect width="47" height="8" rx="4" transform="matrix(-1 0 0 1 87 57)" stroke="white"/>
<rect width="13" height="8" rx="4" transform="matrix(-1 0 0 1 81 16)" fill="white"/>
<rect width="13" height="8" rx="4" transform="matrix(-1 0 0 1 81 16)" stroke="white"/>
<rect width="13" height="8" rx="4" transform="matrix(-1 0 0 1 81 30)" fill="white"/>
<rect width="13" height="8" rx="4" transform="matrix(-1 0 0 1 81 30)" stroke="white"/>
<rect width="13" height="8" rx="4" transform="matrix(-1 0 0 1 81 44)" fill="white"/>
<rect width="13" height="8" rx="4" transform="matrix(-1 0 0 1 81 44)" stroke="white"/>
<rect width="13" height="8" rx="4" transform="matrix(-1 0 0 1 103 16)" fill="white"/>
<rect width="13" height="8" rx="4" transform="matrix(-1 0 0 1 103 16)" stroke="white"/>
<rect width="13" height="8" rx="4" transform="matrix(-1 0 0 1 103 30)" fill="white"/>
<rect width="13" height="8" rx="4" transform="matrix(-1 0 0 1 103 30)" stroke="white"/>
<rect width="13" height="8" rx="4" transform="matrix(-1 0 0 1 103 44)" fill="white"/>
<rect width="13" height="8" rx="4" transform="matrix(-1 0 0 1 103 44)" stroke="white"/>
</svg>
