<svg width="49" height="32" viewBox="0 0 49 32" fill="none" xmlns="http://www.w3.org/2000/svg">
<path fill-rule="evenodd" clip-rule="evenodd" d="M22.2665 5.03151L13.8132 27.7222C13.7563 27.9114 13.687 28.097 13.606 28.2781L13.5581 28.4069C13.4335 28.7412 13.245 29.0331 13.0116 29.2738C11.7892 30.8795 9.55438 31.9545 7 31.9545C3.13401 31.9545 0 29.492 0 26.4545C0 23.4169 3.13401 20.9545 7 20.9545C8.35468 20.9545 9.61949 21.2568 10.6911 21.7803L17.9495 2.29717C17.993 2.18035 18.0443 2.06871 18.1027 1.96262C18.3523 0.822442 19.3782 -0.0214625 20.5899 0.000415805L45.5858 0.451748C46.9663 0.476674 48.0652 1.61599 48.0402 2.99647C48.0349 3.29158 47.9787 3.57382 47.88 3.83497C47.8607 3.90452 47.8383 3.97383 47.8126 4.04272L39.0736 27.5001C38.9881 27.8493 38.8605 28.1867 38.6952 28.509C38.5967 28.742 38.4665 28.9528 38.3115 29.1382C37.1136 30.8186 34.8256 31.9545 32.2 31.9545C28.334 31.9545 25.2 29.492 25.2 26.4545C25.2 23.4169 28.334 20.9545 32.2 20.9545C33.5467 20.9545 34.8047 21.2533 35.8722 21.7712L41.976 5.38738L22.2665 5.03151Z" fill="#FBFBFB"/>
</svg>
