<svg width="119" height="73" viewBox="0 0 119 73" fill="none" xmlns="http://www.w3.org/2000/svg">
<path d="M2.16201 37.1194C0.571108 37.5822 -0.343394 39.2471 0.119414 40.838C0.582222 42.4289 2.24708 43.3434 3.83799 42.8806L2.16201 37.1194ZM113.148 42.8764C114.736 43.3471 116.406 42.4409 116.876 40.8523C117.347 39.2637 116.441 37.5943 114.852 37.1236L113.148 42.8764ZM79.5008 34.105L78.69 31.2167L79.5008 34.105ZM65.862 37.9335L65.0513 35.0451L65.862 37.9335ZM3.83799 42.8806L23.8635 37.055L22.1875 31.2938L2.16201 37.1194L3.83799 42.8806ZM37.1607 37.0231L50.3235 40.7839L51.9718 35.0148L38.809 31.254L37.1607 37.0231ZM66.6728 40.8218L80.3116 36.9934L78.69 31.2167L65.0513 35.0451L66.6728 40.8218ZM93.6158 37.0892L113.148 42.8764L114.852 37.1236L95.3204 31.3364L93.6158 37.0892ZM80.3116 36.9934C84.6667 35.7709 89.2787 35.8041 93.6158 37.0892L95.3204 31.3364C89.899 29.73 84.134 29.6885 78.69 31.2167L80.3116 36.9934ZM23.8635 37.055C28.2044 35.7922 32.8138 35.7811 37.1607 37.0231L38.809 31.254C33.3753 29.7015 27.6137 29.7153 22.1875 31.2938L23.8635 37.055ZM50.3235 40.7839C55.6646 42.3099 61.3246 42.3231 66.6728 40.8218L65.0513 35.0451C60.7727 36.2461 56.2447 36.2356 51.9718 35.0148L50.3235 40.7839Z" fill="white"/>
<path d="M4.16201 67.1194C2.57111 67.5822 1.65661 69.2471 2.11941 70.838C2.58222 72.4289 4.24708 73.3434 5.83799 72.8806L4.16201 67.1194ZM115.148 72.8764C116.736 73.3471 118.406 72.4409 118.876 70.8523C119.347 69.2637 118.441 67.5943 116.852 67.1236L115.148 72.8764ZM81.5008 64.105L80.69 61.2167L81.5008 64.105ZM67.862 67.9335L67.0513 65.0451L67.862 67.9335ZM5.83799 72.8806L25.8635 67.055L24.1875 61.2938L4.16201 67.1194L5.83799 72.8806ZM39.1607 67.0231L52.3235 70.7839L53.9718 65.0148L40.809 61.254L39.1607 67.0231ZM68.6728 70.8218L82.3116 66.9934L80.69 61.2167L67.0513 65.0451L68.6728 70.8218ZM95.6158 67.0892L115.148 72.8764L116.852 67.1236L97.3204 61.3364L95.6158 67.0892ZM82.3116 66.9934C86.6667 65.7709 91.2787 65.8041 95.6158 67.0892L97.3204 61.3364C91.899 59.73 86.134 59.6885 80.69 61.2167L82.3116 66.9934ZM25.8635 67.055C30.2044 65.7922 34.8138 65.7811 39.1607 67.0231L40.809 61.254C35.3753 59.7015 29.6137 59.7153 24.1875 61.2938L25.8635 67.055ZM52.3235 70.7839C57.6646 72.3099 63.3246 72.3231 68.6728 70.8218L67.0513 65.0451C62.7727 66.2461 58.2447 66.2356 53.9718 65.0148L52.3235 70.7839Z" fill="white"/>
<path d="M2.16201 7.11941C0.571108 7.58222 -0.343394 9.24709 0.119414 10.838C0.582222 12.4289 2.24708 13.3434 3.83799 12.8806L2.16201 7.11941ZM113.148 12.8764C114.736 13.3471 116.406 12.4409 116.876 10.8523C117.347 9.26368 116.441 7.5943 114.852 7.12361L113.148 12.8764ZM79.5008 4.10504L78.69 1.21667L79.5008 4.10504ZM65.862 7.93347L65.0513 5.0451L65.862 7.93347ZM3.83799 12.8806L23.8635 7.05499L22.1875 1.29382L2.16201 7.11941L3.83799 12.8806ZM37.1607 7.0231L50.3235 10.7839L51.9718 5.01475L38.809 1.25396L37.1607 7.0231ZM66.6728 10.8218L80.3116 6.9934L78.69 1.21667L65.0513 5.0451L66.6728 10.8218ZM93.6158 7.08917L113.148 12.8764L114.852 7.12361L95.3204 1.33638L93.6158 7.08917ZM80.3116 6.9934C84.6667 5.7709 89.2787 5.8041 93.6158 7.08917L95.3204 1.33638C89.899 -0.26996 84.134 -0.311455 78.69 1.21667L80.3116 6.9934ZM23.8635 7.05499C28.2044 5.79217 32.8138 5.78112 37.1607 7.0231L38.809 1.25396C33.3753 -0.298521 27.6137 -0.284704 22.1875 1.29382L23.8635 7.05499ZM50.3235 10.7839C55.6646 12.3099 61.3246 12.3231 66.6728 10.8218L65.0513 5.0451C60.7727 6.2461 56.2447 6.23559 51.9718 5.01475L50.3235 10.7839Z" fill="white"/>
</svg>
