<svg width="141" height="122" viewBox="0 0 141 122" fill="none" xmlns="http://www.w3.org/2000/svg">
<path d="M12.8246 30.6468C19.2222 24.5626 25.6221 21.2635 30.7918 19.4702C38.4694 16.8069 46.5775 13.4795 53.8169 9.56521C59.92 6.26528 68.9803 3 80.9823 3C90.4593 3 99.3076 6.77527 106.647 11.5035C113.97 16.2208 119.582 21.7526 122.526 24.9407C124.247 26.8049 126.119 28.5788 128.156 30.1754C135.677 36.0698 137.872 39.7743 137.994 43.0747C138.058 44.7972 137.579 46.7573 136.414 49.281C135.241 51.82 133.48 54.7111 131.181 58.2854C127.45 64.0857 121.451 67.9757 114.722 68.6849C104.581 69.7536 88.5966 71 69.2132 71C50.3862 71 33.7159 69.8241 22.5938 68.7753C14.5299 68.0148 7.92465 63.0295 6.67077 55.8019C5.19827 47.3141 5.68583 37.4359 12.8246 30.6468Z" stroke="white" stroke-width="6" stroke-linejoin="round"/>
<line x1="3" y1="117.757" x2="37.7574" y2="83" stroke="white" stroke-width="6" stroke-linecap="round"/>
<line x1="22" y1="117.757" x2="56.7574" y2="83" stroke="white" stroke-width="6" stroke-linecap="round"/>
<line x1="41" y1="117.757" x2="75.7574" y2="83" stroke="white" stroke-width="6" stroke-linecap="round"/>
<line x1="61" y1="117.757" x2="95.7574" y2="83" stroke="white" stroke-width="6" stroke-linecap="round"/>
</svg>
